<svg xmlns="http://www.w3.org/2000/svg" viewBox="0 0 64 64" role="img" aria-labelledby="title"><title id="title">Carona Alegre</title><defs><linearGradient id="g" x1="0" y1="0" x2="1" y2="1"><stop stop-color="#ffc107"/><stop offset="1" stop-color="#ff8f00"/></linearGradient></defs><rect width="64" height="64" rx="18" fill="url(#g)"/><path d="M16 35.5 20.5 24a6 6 0 0 1 5.6-3.8h12a6 6 0 0 1 5.6 3.8L48 35.5v10a3 3 0 0 1-3 3h-2a3 3 0 0 1-3-3v-1H24v1a3 3 0 0 1-3 3h-2a3 3 0 0 1-3-3v-10Z" fill="#17324d"/><path d="M23.5 26h17l2.7 7H20.8l2.7-7Z" fill="#fff" opacity=".95"/><circle cx="23" cy="39" r="3" fill="#fff"/><circle cx="41" cy="39" r="3" fill="#fff"/></svg>
